<?xml version="1.0" encoding="UTF-8" standalone="no"?>
<!-- Generator: Adobe Illustrator 16.0.0, SVG Export Plug-In . SVG Version: 6.00 Build 0)  -->

<svg
   xmlns:dc="http://purl.org/dc/elements/1.1/"
   xmlns:cc="http://creativecommons.org/ns#"
   xmlns:rdf="http://www.w3.org/1999/02/22-rdf-syntax-ns#"
   xmlns:svg="http://www.w3.org/2000/svg"
   xmlns="http://www.w3.org/2000/svg"
   xmlns:sodipodi="http://sodipodi.sourceforge.net/DTD/sodipodi-0.dtd"
   xmlns:inkscape="http://www.inkscape.org/namespaces/inkscape"
   version="1.1"
   id="Capa_1"
   x="0px"
   y="0px"
   width="20"
   height="32"
   viewBox="0 0 20 32"
   xml:space="preserve"
   sodipodi:docname="filter.svg"
   inkscape:version="0.92.3 (2405546, 2018-03-11)"><metadata
   id="metadata41"><rdf:RDF><cc:Work
       rdf:about=""><dc:format>image/svg+xml</dc:format><dc:type
         rdf:resource="http://purl.org/dc/dcmitype/StillImage" /><dc:title></dc:title></cc:Work></rdf:RDF></metadata><defs
   id="defs39" /><sodipodi:namedview
   pagecolor="#ffffff"
   bordercolor="#666666"
   borderopacity="1"
   objecttolerance="10"
   gridtolerance="10"
   guidetolerance="10"
   inkscape:pageopacity="0"
   inkscape:pageshadow="2"
   inkscape:window-width="1920"
   inkscape:window-height="1057"
   id="namedview37"
   showgrid="false"
   inkscape:zoom="20.025276"
   inkscape:cx="6.7116367"
   inkscape:cy="13.754246"
   inkscape:window-x="1272"
   inkscape:window-y="5"
   inkscape:window-maximized="1"
   inkscape:current-layer="Capa_1" />
<g
   id="g4"
   transform="matrix(0.03623659,0,0,0.03623659,0.35310701,7.7168202)">
	<path
   d="M 266.667,0 C 119.391,0 0,37.309 0,83.333 v 50 l 200,200 V 500 c 0,18.409 29.847,33.333 66.667,33.333 36.818,0 66.667,-14.924 66.667,-33.333 V 333.333 l 200,-200 v -50 C 533.333,37.309 413.942,0 266.667,0 Z M 49.158,72.304 C 61.629,65.19 79.149,58.439 99.824,52.779 145.629,40.239 204.88,33.333 266.667,33.333 c 61.786,0 121.039,6.906 166.843,19.446 20.675,5.66 38.194,12.411 50.666,19.525 8.226,4.69 12.669,8.659 14.738,11.029 -2.069,2.371 -6.514,6.337 -14.738,11.029 -12.472,7.114 -29.991,13.865 -50.666,19.525 -45.803,12.54 -105.056,19.446 -166.843,19.446 -61.787,0 -121.038,-6.906 -166.843,-19.446 C 79.149,108.226 61.629,101.475 49.158,94.362 40.933,89.671 36.489,85.704 34.419,83.333 c 2.07,-2.37 6.514,-6.337 14.739,-11.029 z"
   id="path2"
   inkscape:connector-curvature="0" />
</g>
<g
   id="g6"
   transform="translate(0,-501.33301)">
</g>
<g
   id="g8"
   transform="translate(0,-501.33301)">
</g>
<g
   id="g10"
   transform="translate(0,-501.33301)">
</g>
<g
   id="g12"
   transform="translate(0,-501.33301)">
</g>
<g
   id="g14"
   transform="translate(0,-501.33301)">
</g>
<g
   id="g16"
   transform="translate(0,-501.33301)">
</g>
<g
   id="g18"
   transform="translate(0,-501.33301)">
</g>
<g
   id="g20"
   transform="translate(0,-501.33301)">
</g>
<g
   id="g22"
   transform="translate(0,-501.33301)">
</g>
<g
   id="g24"
   transform="translate(0,-501.33301)">
</g>
<g
   id="g26"
   transform="translate(0,-501.33301)">
</g>
<g
   id="g28"
   transform="translate(0,-501.33301)">
</g>
<g
   id="g30"
   transform="translate(0,-501.33301)">
</g>
<g
   id="g32"
   transform="translate(0,-501.33301)">
</g>
<g
   id="g34"
   transform="translate(0,-501.33301)">
</g>
<ellipse
   style="opacity:1;fill:#000000;fill-opacity:1;stroke:none;stroke-width:0.09699509;stroke-linecap:round;stroke-linejoin:round;stroke-miterlimit:4;stroke-dasharray:none;stroke-opacity:1"
   id="path4552"
   cx="5.0806565"
   cy="2.8428681"
   rx="0.98281628"
   ry="1.0125988" /><ellipse
   style="opacity:1;fill:#000000;fill-opacity:1;stroke:none;stroke-width:0.09699509;stroke-linecap:round;stroke-linejoin:round;stroke-miterlimit:4;stroke-dasharray:none;stroke-opacity:1"
   id="path4552-5"
   cx="3.6038418"
   cy="6.5841885"
   rx="0.98281628"
   ry="1.0125988" /><ellipse
   style="opacity:1;fill:#000000;fill-opacity:1;stroke:none;stroke-width:0.09699509;stroke-linecap:round;stroke-linejoin:round;stroke-miterlimit:4;stroke-dasharray:none;stroke-opacity:1"
   id="path4552-3"
   cx="8.8548002"
   cy="1.3035706"
   rx="0.98281628"
   ry="1.0125988" /><ellipse
   style="opacity:1;fill:#000000;fill-opacity:1;stroke:none;stroke-width:0.09699509;stroke-linecap:round;stroke-linejoin:round;stroke-miterlimit:4;stroke-dasharray:none;stroke-opacity:1"
   id="path4552-6"
   cx="13.662442"
   cy="2.7970445"
   rx="0.98281628"
   ry="1.0125988" /><ellipse
   style="opacity:1;fill:#000000;fill-opacity:1;stroke:none;stroke-width:0.09699509;stroke-linecap:round;stroke-linejoin:round;stroke-miterlimit:4;stroke-dasharray:none;stroke-opacity:1"
   id="path4552-8"
   cx="7.123054"
   cy="10.378509"
   rx="0.98281628"
   ry="1.0125988" /><ellipse
   style="opacity:1;fill:#000000;fill-opacity:1;stroke:none;stroke-width:0.09699509;stroke-linecap:round;stroke-linejoin:round;stroke-miterlimit:4;stroke-dasharray:none;stroke-opacity:1"
   id="path4552-55"
   cx="10.49275"
   cy="4.8960986"
   rx="0.98281628"
   ry="1.0125988" /><ellipse
   style="opacity:1;fill:#000000;fill-opacity:1;stroke:none;stroke-width:0.09699509;stroke-linecap:round;stroke-linejoin:round;stroke-miterlimit:4;stroke-dasharray:none;stroke-opacity:1"
   id="path4552-4"
   cx="15.380532"
   cy="6.7099752"
   rx="0.98281628"
   ry="1.0125988" /><ellipse
   style="opacity:1;fill:#000000;fill-opacity:1;stroke:none;stroke-width:0.09699509;stroke-linecap:round;stroke-linejoin:round;stroke-miterlimit:4;stroke-dasharray:none;stroke-opacity:1"
   id="path4552-82"
   cx="12.330703"
   cy="10.957139"
   rx="0.98281628"
   ry="1.0125988" /><ellipse
   style="opacity:1;fill:#000000;fill-opacity:1;stroke:none;stroke-width:0.09699509;stroke-linecap:round;stroke-linejoin:round;stroke-miterlimit:4;stroke-dasharray:none;stroke-opacity:1"
   id="path4552-80"
   cx="9.0062246"
   cy="30.110687"
   rx="0.98281628"
   ry="1.0125988" /><ellipse
   style="opacity:1;fill:#000000;fill-opacity:1;stroke:none;stroke-width:0.09699509;stroke-linecap:round;stroke-linejoin:round;stroke-miterlimit:4;stroke-dasharray:none;stroke-opacity:1"
   id="path4552-9"
   cx="11.085075"
   cy="28.068205"
   rx="0.98281628"
   ry="1.0125988" /></svg>